<svg xmlns="http://www.w3.org/2000/svg"  viewBox="0 0 64 64" width="64px" height="64px"><radialGradient id="_h30zZrszKWbE~Nd76oFfa" cx="-117.362" cy="8714.514" r="180.803" gradientTransform="translate(0 -8674)" gradientUnits="userSpaceOnUse"><stop offset="0" stop-color="#f4e9c3"/><stop offset=".219" stop-color="#f8eecd"/><stop offset=".644" stop-color="#fdf4dc"/><stop offset="1" stop-color="#fff6e1"/></radialGradient><path fill="url(#_h30zZrszKWbE~Nd76oFfa)" d="M59.5,33h-4.401c-0.982,0-1.893-0.663-2.066-1.63C53.011,31.244,53,31.119,53,30.996	c0.002-1.06,0.829-1.927,1.873-1.992c1.515-0.095,2.906-1.098,3.101-2.604C57.991,26.264,58,26.13,58,25.997	C57.998,24.342,56.656,23,55,23h-8v-8h7.302c1.884,0,3.574-1.402,3.691-3.278c0.001-0.011,0.001-0.022,0.002-0.033	C57.998,11.625,58,11.563,58,11.5C58,9.567,56.433,8,54.5,8H47h-6v4H14h-2.302c-1.896,0-3.594,1.419-3.693,3.312	c-0.001,0.024-0.002,0.047-0.003,0.071C7.937,17.369,9.528,19,11.5,19H17v8H9.5C8.119,27,7,28.119,7,29.5S8.119,32,9.5,32l0,0	c1.381,0,2.5,1.119,2.5,2.5S10.881,37,9.5,37H4.17c-1.625,0-3.081,1.217-3.166,2.839C1.002,39.893,1,39.947,1,40	c0,1.656,1.343,3,3,3h4.893c0.996,0,1.919,0.681,2.08,1.664C10.991,44.777,11,44.888,11,44.997C11.001,46.103,10.106,47,9,47H8.17	c-1.624,0-3.081,1.217-3.165,2.839C5.002,49.893,5,49.947,5,50c0,1.656,1.343,3,3,3h13v-1h29h4.83c1.57,0,3.083-1.271,3.165-2.839	C58.086,47.431,56.71,46,55,46h-0.013c-0.006,0-0.011,0-0.017,0c-0.777,0-1.539-0.254-2.078-0.768	c-0.17-0.162-0.318-0.35-0.438-0.564C51.166,42.35,52.809,40,55,40h4.302c1.896,0,3.595-1.42,3.693-3.313	C63.1,34.669,61.495,33,59.5,33z"/><radialGradient id="_h30zZrszKWbE~Nd76oFfb" cx="-9.546" cy="8704.613" r="14.612" gradientTransform="translate(0 -8674)" gradientUnits="userSpaceOnUse"><stop offset="0" stop-color="#f4e9c3"/><stop offset=".219" stop-color="#f8eecd"/><stop offset=".644" stop-color="#fdf4dc"/><stop offset="1" stop-color="#fff6e1"/></radialGradient><path fill="url(#_h30zZrszKWbE~Nd76oFfb)" d="M5,29.5C5,28.119,3.881,27,2.5,27S0,28.119,0,29.5S1.119,32,2.5,32S5,30.881,5,29.5z"/><linearGradient id="_h30zZrszKWbE~Nd76oFfc" x1="32" x2="32" y1="2.532" y2="68.153" gradientTransform="matrix(1 0 0 -1 0 66)" gradientUnits="userSpaceOnUse"><stop offset="0" stop-color="#76818b"/><stop offset="1" stop-color="#7f8a96"/></linearGradient><path fill="url(#_h30zZrszKWbE~Nd76oFfc)" d="M44,61H20c-2.761,0-5-2.239-5-5V8c0-2.761,2.239-5,5-5h24c2.761,0,5,2.239,5,5v48	C49,58.761,46.761,61,44,61z"/><linearGradient id="_h30zZrszKWbE~Nd76oFfd" x1="32" x2="32" y1="44.388" y2="2.424" gradientTransform="matrix(1 0 0 -1 0 66)" gradientUnits="userSpaceOnUse"><stop offset="0" stop-color="#dff9ff"/><stop offset="0" stop-color="#dff9ff"/><stop offset=".173" stop-color="#d8f8ff"/><stop offset=".423" stop-color="#c5f4ff"/><stop offset=".72" stop-color="#a5eeff"/><stop offset="1" stop-color="#81e7ff"/></linearGradient><path fill="url(#_h30zZrszKWbE~Nd76oFfd)" d="M46,9v46c0,1.657-1.343,3-3,3H21c-1.657,0-3-1.343-3-3V9c0-1.657,1.343-3,3-3h3	c0.552,0,1,0.448,1,1l0,0c0,1.1,0.9,2,2,2h10c1.1,0,2-0.9,2-2l0,0c0-0.552,0.448-1,1-1h3C44.657,6,46,7.343,46,9z"/><linearGradient id="_h30zZrszKWbE~Nd76oFfe" x1="39" x2="39" y1="8.021" y2="49.742" gradientTransform="matrix(1 0 0 -1 0 66)" gradientUnits="userSpaceOnUse"><stop offset="0" stop-color="#89e4fa"/><stop offset=".406" stop-color="#94e8fc"/><stop offset="1" stop-color="#acf0ff"/></linearGradient><path fill="url(#_h30zZrszKWbE~Nd76oFfe)" d="M36,45.5L36,45.5c0,1.381,1.119,2.5,2.5,2.5l0,0c1.381,0,2.5,1.119,2.5,2.5l0,0	c0,1.381-1.119,2.5-2.5,2.5h-4c-1.381,0-2.5,1.119-2.5,2.5l0,0c0,1.381,1.119,2.5,2.5,2.5H43c1.657,0,3-1.343,3-3v-2v-5v-5h-7.5	C37.119,43,36,44.119,36,45.5z"/><linearGradient id="_h30zZrszKWbE~Nd76oFff" x1="37.5" x2="37.5" y1="8695" y2="8690" gradientTransform="translate(0 -8674)" gradientUnits="userSpaceOnUse"><stop offset="0" stop-color="#ecf9fd"/><stop offset=".848" stop-color="#f2fdff"/><stop offset="1" stop-color="#f4feff"/></linearGradient><path fill="url(#_h30zZrszKWbE~Nd76oFff)" d="M35,18.5L35,18.5c0,1.381,1.119,2.5,2.5,2.5l0,0c1.381,0,2.5-1.119,2.5-2.5l0,0	c0-1.381-1.119-2.5-2.5-2.5l0,0C36.119,16,35,17.119,35,18.5z"/><linearGradient id="_h30zZrszKWbE~Nd76oFfg" x1="27.5" x2="27.5" y1="26" y2="60" gradientTransform="matrix(1 0 0 -1 0 66)" gradientUnits="userSpaceOnUse"><stop offset="0" stop-color="#ecf9fd"/><stop offset=".848" stop-color="#f2fdff"/><stop offset="1" stop-color="#f4feff"/></linearGradient><path fill="url(#_h30zZrszKWbE~Nd76oFfg)" d="M37,9c0,1.66-1.34,3-3,3h-7c-1.206,0-2.173,1.072-1.972,2.326	C25.186,15.314,26.114,16,27.115,16H30.5c1.466,0,2.634,1.254,2.491,2.749C32.866,20.054,31.671,21,30.36,21H29.5	c-1.466,0-2.634,1.254-2.491,2.749C27.134,25.054,28.329,26,29.64,26h2.86c1.466,0,2.634,1.254,2.491,2.749	C34.866,30.054,33.671,31,32.36,31H27c-1.206,0-2.173,1.072-1.972,2.326C25.186,34.314,26.114,35,27.115,35H27.5	c1.466,0,2.634,1.254,2.491,2.749C29.866,39.054,28.671,40,27.36,40H18V9c0-1.657,1.343-3,3-3h3c0.552,0,1,0.448,1,1l0,0	c0,1.1,0.9,2,2,2H37z"/><linearGradient id="_h30zZrszKWbE~Nd76oFfh" x1="32" x2="32" y1="11" y2="13" gradientTransform="matrix(1 0 0 -1 0 66)" gradientUnits="userSpaceOnUse"><stop offset="0" stop-color="#ecf9fd"/><stop offset=".848" stop-color="#f2fdff"/><stop offset="1" stop-color="#f4feff"/></linearGradient><path fill="url(#_h30zZrszKWbE~Nd76oFfh)" d="M39,55H25c-0.552,0-1-0.447-1-1s0.448-1,1-1h14c0.553,0,1,0.447,1,1S39.553,55,39,55z"/></svg>